<svg id="visual" viewBox="0 0 960 540" width="960" height="540" xmlns="http://www.w3.org/2000/svg" xmlns:xlink="http://www.w3.org/1999/xlink" version="1.1"><rect x="0" y="0" width="960" height="540" fill="#24252a"></rect><path d="M0 436L32 441.8C64 447.7 128 459.3 192 448.3C256 437.3 320 403.7 384 388.2C448 372.7 512 375.3 576 389.2C640 403 704 428 768 440.5C832 453 896 453 928 453L960 453L960 541L928 541C896 541 832 541 768 541C704 541 640 541 576 541C512 541 448 541 384 541C320 541 256 541 192 541C128 541 64 541 32 541L0 541Z" fill="#35363D" stroke-linecap="round" stroke-linejoin="miter"></path></svg>